<svg width="68" height="65" viewBox="0 0 68 65" fill="none" xmlns="http://www.w3.org/2000/svg">
<path fill-rule="evenodd" clip-rule="evenodd" d="M7.79166 5.35178C5.05325 5.35178 2.83333 7.44834 2.83333 10.0346V19.4002C2.83333 21.9864 5.05325 24.083 7.79166 24.083H60.2083C62.9467 24.083 65.1667 21.9864 65.1667 19.4002V10.0346C65.1667 7.44834 62.9467 5.35178 60.2083 5.35178H7.79166ZM60.2083 9.36561H7.79166C7.40046 9.36561 7.08333 9.66512 7.08333 10.0346V19.4002C7.08333 19.7697 7.40046 20.0692 7.79166 20.0692H60.2083C60.5995 20.0692 60.9167 19.7697 60.9167 19.4002V10.0346C60.9167 9.66512 60.5995 9.36561 60.2083 9.36561Z" fill="white"/>
<path d="M7.79166 26.7589C8.96527 26.7589 9.91666 27.6574 9.91666 28.7658V54.1867C9.91666 54.5562 10.2338 54.8557 10.625 54.8557H57.375C57.7662 54.8557 58.0833 54.5562 58.0833 54.1867V28.7658C58.0833 27.6574 59.0347 26.7589 60.2083 26.7589C61.3819 26.7589 62.3333 27.6574 62.3333 28.7658V54.1867C62.3333 56.773 60.1134 58.8695 57.375 58.8695H10.625C7.88658 58.8695 5.66666 56.773 5.66666 54.1867V28.7658C5.66666 27.6574 6.61806 26.7589 7.79166 26.7589Z" fill="white"/>
<path d="M27.625 30.7727C26.4514 30.7727 25.5 31.6712 25.5 32.7796C25.5 33.888 26.4514 34.7866 27.625 34.7866H40.375C41.5486 34.7866 42.5 33.888 42.5 32.7796C42.5 31.6712 41.5486 30.7727 40.375 30.7727H27.625Z" fill="white"/>
</svg>
