<svg width="78" height="13" viewBox="0 0 78 13" fill="none" xmlns="http://www.w3.org/2000/svg">
<path d="M3.728 2.96V5.232H7.392V7.344H3.728V9.808H7.872V12H0.992V0.768H7.872V2.96H3.728ZM18.0283 12L15.7403 8.56L13.7243 12H10.6203L14.2203 6.288L10.5403 0.768H13.7243L15.9803 4.16L17.9643 0.768H21.0683L17.5003 6.432L21.2123 12H18.0283ZM32.6458 4.384C32.6458 5.03467 32.4964 5.632 32.1978 6.176C31.8991 6.70933 31.4404 7.14133 30.8218 7.472C30.2031 7.80267 29.4351 7.968 28.5178 7.968H26.8218V12H24.0858V0.768H28.5178C29.4138 0.768 30.1711 0.922666 30.7898 1.232C31.4084 1.54133 31.8724 1.968 32.1818 2.512C32.4911 3.056 32.6458 3.68 32.6458 4.384ZM28.3098 5.792C28.8324 5.792 29.2218 5.66933 29.4778 5.424C29.7338 5.17867 29.8618 4.832 29.8618 4.384C29.8618 3.936 29.7338 3.58933 29.4778 3.344C29.2218 3.09867 28.8324 2.976 28.3098 2.976H26.8218V5.792H28.3098ZM38.3061 9.888H41.8901V12H35.5701V0.768H38.3061V9.888ZM50.0071 12.112C48.9511 12.112 47.9805 11.8667 47.0951 11.376C46.2205 10.8853 45.5218 10.2027 44.9991 9.328C44.4871 8.44267 44.2311 7.45067 44.2311 6.352C44.2311 5.25333 44.4871 4.26667 44.9991 3.392C45.5218 2.51733 46.2205 1.83467 47.0951 1.344C47.9805 0.853333 48.9511 0.608 50.0071 0.608C51.0631 0.608 52.0285 0.853333 52.9031 1.344C53.7885 1.83467 54.4818 2.51733 54.9831 3.392C55.4951 4.26667 55.7511 5.25333 55.7511 6.352C55.7511 7.45067 55.4951 8.44267 54.9831 9.328C54.4711 10.2027 53.7778 10.8853 52.9031 11.376C52.0285 11.8667 51.0631 12.112 50.0071 12.112ZM50.0071 9.616C50.9031 9.616 51.6178 9.31733 52.1511 8.72C52.6951 8.12267 52.9671 7.33333 52.9671 6.352C52.9671 5.36 52.6951 4.57067 52.1511 3.984C51.6178 3.38667 50.9031 3.088 50.0071 3.088C49.1005 3.088 48.3751 3.38133 47.8311 3.968C47.2978 4.55467 47.0311 5.34933 47.0311 6.352C47.0311 7.344 47.2978 8.13867 47.8311 8.736C48.3751 9.32267 49.1005 9.616 50.0071 9.616ZM64.5013 12L62.1653 7.76H61.5093V12H58.7733V0.768H63.3653C64.2506 0.768 65.0026 0.922666 65.6213 1.232C66.2506 1.54133 66.7199 1.968 67.0293 2.512C67.3386 3.04533 67.4933 3.64267 67.4933 4.304C67.4933 5.05067 67.2799 5.71733 66.8533 6.304C66.4373 6.89067 65.8186 7.30667 64.9973 7.552L67.5893 12H64.5013ZM61.5093 5.824H63.2053C63.7066 5.824 64.0799 5.70133 64.3253 5.456C64.5813 5.21067 64.7093 4.864 64.7093 4.416C64.7093 3.98933 64.5813 3.65333 64.3253 3.408C64.0799 3.16267 63.7066 3.04 63.2053 3.04H61.5093V5.824ZM73.4468 2.96V5.232H77.1108V7.344H73.4468V9.808H77.5908V12H70.7108V0.768H77.5908V2.96H73.4468Z" fill="url(#paint0_linear_206_81)"/>
<defs>
<linearGradient id="paint0_linear_206_81" x1="2.19461" y1="0.775634" x2="106.882" y2="18.5359" gradientUnits="userSpaceOnUse">
<stop stop-color="#9B51E0"/>
<stop offset="1" stop-color="#3081ED"/>
</linearGradient>
</defs>
</svg>
