<svg width="388" height="43" viewBox="0 0 388 43" fill="none" xmlns="http://www.w3.org/2000/svg">
<g filter="url(#filter0_d_206_80)">
<path d="M7.728 8.96V11.232H11.392V13.344H7.728V15.808H11.872V18H4.992V6.768H11.872V8.96H7.728ZM22.0283 18L19.7403 14.56L17.7243 18H14.6203L18.2203 12.288L14.5403 6.768H17.7243L19.9803 10.16L21.9643 6.768H25.0683L21.5003 12.432L25.2123 18H22.0283ZM36.6458 10.384C36.6458 11.0347 36.4964 11.632 36.1978 12.176C35.8991 12.7093 35.4404 13.1413 34.8218 13.472C34.2031 13.8027 33.4351 13.968 32.5178 13.968H30.8218V18H28.0858V6.768H32.5178C33.4138 6.768 34.1711 6.92267 34.7898 7.232C35.4084 7.54133 35.8724 7.968 36.1818 8.512C36.4911 9.056 36.6458 9.68 36.6458 10.384ZM32.3098 11.792C32.8324 11.792 33.2218 11.6693 33.4778 11.424C33.7338 11.1787 33.8618 10.832 33.8618 10.384C33.8618 9.936 33.7338 9.58933 33.4778 9.344C33.2218 9.09867 32.8324 8.976 32.3098 8.976H30.8218V11.792H32.3098ZM42.3061 15.888H45.8901V18H39.5701V6.768H42.3061V15.888ZM54.0071 18.112C52.9511 18.112 51.9805 17.8667 51.0951 17.376C50.2205 16.8853 49.5218 16.2027 48.9991 15.328C48.4871 14.4427 48.2311 13.4507 48.2311 12.352C48.2311 11.2533 48.4871 10.2667 48.9991 9.392C49.5218 8.51733 50.2205 7.83467 51.0951 7.344C51.9805 6.85333 52.9511 6.608 54.0071 6.608C55.0631 6.608 56.0285 6.85333 56.9031 7.344C57.7885 7.83467 58.4818 8.51733 58.9831 9.392C59.4951 10.2667 59.7511 11.2533 59.7511 12.352C59.7511 13.4507 59.4951 14.4427 58.9831 15.328C58.4711 16.2027 57.7778 16.8853 56.9031 17.376C56.0285 17.8667 55.0631 18.112 54.0071 18.112ZM54.0071 15.616C54.9031 15.616 55.6178 15.3173 56.1511 14.72C56.6951 14.1227 56.9671 13.3333 56.9671 12.352C56.9671 11.36 56.6951 10.5707 56.1511 9.984C55.6178 9.38667 54.9031 9.088 54.0071 9.088C53.1005 9.088 52.3751 9.38133 51.8311 9.968C51.2978 10.5547 51.0311 11.3493 51.0311 12.352C51.0311 13.344 51.2978 14.1387 51.8311 14.736C52.3751 15.3227 53.1005 15.616 54.0071 15.616ZM68.5013 18L66.1653 13.76H65.5093V18H62.7733V6.768H67.3653C68.2506 6.768 69.0026 6.92267 69.6213 7.232C70.2506 7.54133 70.7199 7.968 71.0293 8.512C71.3386 9.04533 71.4933 9.64267 71.4933 10.304C71.4933 11.0507 71.2799 11.7173 70.8533 12.304C70.4373 12.8907 69.8186 13.3067 68.9973 13.552L71.5893 18H68.5013ZM65.5093 11.824H67.2053C67.7066 11.824 68.0799 11.7013 68.3253 11.456C68.5813 11.2107 68.7093 10.864 68.7093 10.416C68.7093 9.98933 68.5813 9.65333 68.3253 9.408C68.0799 9.16267 67.7066 9.04 67.2053 9.04H65.5093V11.824ZM77.4468 8.96V11.232H81.1108V13.344H77.4468V15.808H81.5908V18H74.7108V6.768H81.5908V8.96H77.4468Z" fill="url(#paint0_linear_206_80)"/>
<path d="M119.592 11.416C119.592 10.328 119.843 9.352 120.344 8.488C120.856 7.624 121.544 6.952 122.408 6.472C123.283 5.98133 124.237 5.736 125.272 5.736C126.456 5.736 127.507 6.02933 128.424 6.616C129.352 7.192 130.024 8.01333 130.44 9.08H128.248C127.96 8.49333 127.56 8.056 127.048 7.768C126.536 7.48 125.944 7.336 125.272 7.336C124.536 7.336 123.88 7.50133 123.304 7.832C122.728 8.16267 122.275 8.63733 121.944 9.256C121.624 9.87467 121.464 10.5947 121.464 11.416C121.464 12.2373 121.624 12.9573 121.944 13.576C122.275 14.1947 122.728 14.6747 123.304 15.016C123.88 15.3467 124.536 15.512 125.272 15.512C125.944 15.512 126.536 15.368 127.048 15.08C127.56 14.792 127.96 14.3547 128.248 13.768H130.44C130.024 14.8347 129.352 15.656 128.424 16.232C127.507 16.808 126.456 17.096 125.272 17.096C124.227 17.096 123.272 16.856 122.408 16.376C121.544 15.8853 120.856 15.208 120.344 14.344C119.843 13.48 119.592 12.504 119.592 11.416ZM139.147 17.112C138.112 17.112 137.158 16.872 136.283 16.392C135.419 15.9013 134.731 15.224 134.219 14.36C133.718 13.4853 133.467 12.504 133.467 11.416C133.467 10.328 133.718 9.352 134.219 8.488C134.731 7.624 135.419 6.952 136.283 6.472C137.158 5.98133 138.112 5.736 139.147 5.736C140.192 5.736 141.147 5.98133 142.011 6.472C142.886 6.952 143.574 7.624 144.075 8.488C144.576 9.352 144.827 10.328 144.827 11.416C144.827 12.504 144.576 13.4853 144.075 14.36C143.574 15.224 142.886 15.9013 142.011 16.392C141.147 16.872 140.192 17.112 139.147 17.112ZM139.147 15.528C139.883 15.528 140.539 15.3627 141.115 15.032C141.691 14.6907 142.139 14.2107 142.459 13.592C142.79 12.9627 142.955 12.2373 142.955 11.416C142.955 10.5947 142.79 9.87467 142.459 9.256C142.139 8.63733 141.691 8.16267 141.115 7.832C140.539 7.50133 139.883 7.336 139.147 7.336C138.411 7.336 137.755 7.50133 137.179 7.832C136.603 8.16267 136.15 8.63733 135.819 9.256C135.499 9.87467 135.339 10.5947 135.339 11.416C135.339 12.2373 135.499 12.9627 135.819 13.592C136.15 14.2107 136.603 14.6907 137.179 15.032C137.755 15.3627 138.411 15.528 139.147 15.528ZM149.946 15.528H153.706V17H148.122V5.88H149.946V15.528ZM158.555 15.528H162.315V17H156.731V5.88H158.555V15.528ZM167.165 7.352V10.616H171.005V12.104H167.165V15.512H171.485V17H165.341V5.864H171.485V7.352H167.165ZM174.623 11.416C174.623 10.328 174.874 9.352 175.375 8.488C175.887 7.624 176.575 6.952 177.439 6.472C178.314 5.98133 179.269 5.736 180.303 5.736C181.487 5.736 182.538 6.02933 183.455 6.616C184.383 7.192 185.055 8.01333 185.471 9.08H183.279C182.991 8.49333 182.591 8.056 182.079 7.768C181.567 7.48 180.975 7.336 180.303 7.336C179.567 7.336 178.911 7.50133 178.335 7.832C177.759 8.16267 177.306 8.63733 176.975 9.256C176.655 9.87467 176.495 10.5947 176.495 11.416C176.495 12.2373 176.655 12.9573 176.975 13.576C177.306 14.1947 177.759 14.6747 178.335 15.016C178.911 15.3467 179.567 15.512 180.303 15.512C180.975 15.512 181.567 15.368 182.079 15.08C182.591 14.792 182.991 14.3547 183.279 13.768H185.471C185.055 14.8347 184.383 15.656 183.455 16.232C182.538 16.808 181.487 17.096 180.303 17.096C179.258 17.096 178.303 16.856 177.439 16.376C176.575 15.8853 175.887 15.208 175.375 14.344C174.874 13.48 174.623 12.504 174.623 11.416ZM196.29 5.88V7.368H193.33V17H191.506V7.368H188.53V5.88H196.29ZM201.462 5.88V17H199.638V5.88H201.462ZM210.428 17.112C209.394 17.112 208.439 16.872 207.564 16.392C206.7 15.9013 206.012 15.224 205.5 14.36C204.999 13.4853 204.748 12.504 204.748 11.416C204.748 10.328 204.999 9.352 205.5 8.488C206.012 7.624 206.7 6.952 207.564 6.472C208.439 5.98133 209.394 5.736 210.428 5.736C211.474 5.736 212.428 5.98133 213.292 6.472C214.167 6.952 214.855 7.624 215.356 8.488C215.858 9.352 216.108 10.328 216.108 11.416C216.108 12.504 215.858 13.4853 215.356 14.36C214.855 15.224 214.167 15.9013 213.292 16.392C212.428 16.872 211.474 17.112 210.428 17.112ZM210.428 15.528C211.164 15.528 211.82 15.3627 212.396 15.032C212.972 14.6907 213.42 14.2107 213.74 13.592C214.071 12.9627 214.236 12.2373 214.236 11.416C214.236 10.5947 214.071 9.87467 213.74 9.256C213.42 8.63733 212.972 8.16267 212.396 7.832C211.82 7.50133 211.164 7.336 210.428 7.336C209.692 7.336 209.036 7.50133 208.46 7.832C207.884 8.16267 207.431 8.63733 207.1 9.256C206.78 9.87467 206.62 10.5947 206.62 11.416C206.62 12.2373 206.78 12.9627 207.1 13.592C207.431 14.2107 207.884 14.6907 208.46 15.032C209.036 15.3627 209.692 15.528 210.428 15.528ZM228.539 17H226.715L221.227 8.696V17H219.403V5.864H221.227L226.715 14.152V5.864H228.539V17ZM236.098 17.112C235.352 17.112 234.68 16.984 234.082 16.728C233.485 16.4613 233.016 16.088 232.674 15.608C232.333 15.128 232.162 14.568 232.162 13.928H234.114C234.157 14.408 234.344 14.8027 234.674 15.112C235.016 15.4213 235.49 15.576 236.098 15.576C236.728 15.576 237.218 15.4267 237.57 15.128C237.922 14.8187 238.098 14.424 238.098 13.944C238.098 13.5707 237.986 13.2667 237.762 13.032C237.549 12.7973 237.277 12.616 236.946 12.488C236.626 12.36 236.178 12.2213 235.602 12.072C234.877 11.88 234.285 11.688 233.826 11.496C233.378 11.2933 232.994 10.984 232.674 10.568C232.354 10.152 232.194 9.59733 232.194 8.904C232.194 8.264 232.354 7.704 232.674 7.224C232.994 6.744 233.442 6.376 234.018 6.12C234.594 5.864 235.261 5.736 236.018 5.736C237.096 5.736 237.976 6.008 238.658 6.552C239.352 7.08533 239.736 7.82133 239.81 8.76H237.794C237.762 8.35467 237.57 8.008 237.218 7.72C236.866 7.432 236.402 7.288 235.826 7.288C235.304 7.288 234.877 7.42133 234.546 7.688C234.216 7.95467 234.05 8.33867 234.05 8.84C234.05 9.18133 234.152 9.464 234.354 9.688C234.568 9.90133 234.834 10.072 235.154 10.2C235.474 10.328 235.912 10.4667 236.466 10.616C237.202 10.8187 237.8 11.0213 238.258 11.224C238.728 11.4267 239.122 11.7413 239.442 12.168C239.773 12.584 239.938 13.144 239.938 13.848C239.938 14.4133 239.784 14.9467 239.474 15.448C239.176 15.9493 238.733 16.3547 238.146 16.664C237.57 16.9627 236.888 17.112 236.098 17.112Z" fill="#BCBCBC"/>
<path d="M280.976 19L278.416 14.552H277.024V19H275.2V7.88H279.04C279.893 7.88 280.613 8.02933 281.2 8.328C281.797 8.62667 282.24 9.02667 282.528 9.528C282.827 10.0293 282.976 10.5893 282.976 11.208C282.976 11.9333 282.763 12.5947 282.336 13.192C281.92 13.7787 281.275 14.1787 280.4 14.392L283.152 19H280.976ZM277.024 13.096H279.04C279.723 13.096 280.235 12.9253 280.576 12.584C280.928 12.2427 281.104 11.784 281.104 11.208C281.104 10.632 280.933 10.184 280.592 9.864C280.251 9.53333 279.733 9.368 279.04 9.368H277.024V13.096ZM288.633 9.352V12.616H292.473V14.104H288.633V17.512H292.953V19H286.809V7.864H292.953V9.352H288.633ZM300.364 19.112C299.617 19.112 298.945 18.984 298.348 18.728C297.751 18.4613 297.281 18.088 296.94 17.608C296.599 17.128 296.428 16.568 296.428 15.928H298.38C298.423 16.408 298.609 16.8027 298.94 17.112C299.281 17.4213 299.756 17.576 300.364 17.576C300.993 17.576 301.484 17.4267 301.836 17.128C302.188 16.8187 302.364 16.424 302.364 15.944C302.364 15.5707 302.252 15.2667 302.028 15.032C301.815 14.7973 301.543 14.616 301.212 14.488C300.892 14.36 300.444 14.2213 299.868 14.072C299.143 13.88 298.551 13.688 298.092 13.496C297.644 13.2933 297.26 12.984 296.94 12.568C296.62 12.152 296.46 11.5973 296.46 10.904C296.46 10.264 296.62 9.704 296.94 9.224C297.26 8.744 297.708 8.376 298.284 8.12C298.86 7.864 299.527 7.736 300.284 7.736C301.361 7.736 302.241 8.008 302.924 8.552C303.617 9.08533 304.001 9.82133 304.076 10.76H302.06C302.028 10.3547 301.836 10.008 301.484 9.72C301.132 9.432 300.668 9.288 300.092 9.288C299.569 9.288 299.143 9.42133 298.812 9.688C298.481 9.95467 298.316 10.3387 298.316 10.84C298.316 11.1813 298.417 11.464 298.62 11.688C298.833 11.9013 299.1 12.072 299.42 12.2C299.74 12.328 300.177 12.4667 300.732 12.616C301.468 12.8187 302.065 13.0213 302.524 13.224C302.993 13.4267 303.388 13.7413 303.708 14.168C304.039 14.584 304.204 15.144 304.204 15.848C304.204 16.4133 304.049 16.9467 303.74 17.448C303.441 17.9493 302.999 18.3547 302.412 18.664C301.836 18.9627 301.153 19.112 300.364 19.112ZM312.928 19.112C311.894 19.112 310.939 18.872 310.064 18.392C309.2 17.9013 308.512 17.224 308 16.36C307.499 15.4853 307.248 14.504 307.248 13.416C307.248 12.328 307.499 11.352 308 10.488C308.512 9.624 309.2 8.952 310.064 8.472C310.939 7.98133 311.894 7.736 312.928 7.736C313.974 7.736 314.928 7.98133 315.792 8.472C316.667 8.952 317.355 9.624 317.856 10.488C318.358 11.352 318.608 12.328 318.608 13.416C318.608 14.504 318.358 15.4853 317.856 16.36C317.355 17.224 316.667 17.9013 315.792 18.392C314.928 18.872 313.974 19.112 312.928 19.112ZM312.928 17.528C313.664 17.528 314.32 17.3627 314.896 17.032C315.472 16.6907 315.92 16.2107 316.24 15.592C316.571 14.9627 316.736 14.2373 316.736 13.416C316.736 12.5947 316.571 11.8747 316.24 11.256C315.92 10.6373 315.472 10.1627 314.896 9.832C314.32 9.50133 313.664 9.336 312.928 9.336C312.192 9.336 311.536 9.50133 310.96 9.832C310.384 10.1627 309.931 10.6373 309.6 11.256C309.28 11.8747 309.12 12.5947 309.12 13.416C309.12 14.2373 309.28 14.9627 309.6 15.592C309.931 16.2107 310.384 16.6907 310.96 17.032C311.536 17.3627 312.192 17.528 312.928 17.528ZM323.711 7.88V14.968C323.711 15.8107 323.93 16.4453 324.367 16.872C324.815 17.2987 325.434 17.512 326.223 17.512C327.023 17.512 327.642 17.2987 328.079 16.872C328.527 16.4453 328.751 15.8107 328.751 14.968V7.88H330.575V14.936C330.575 15.8427 330.378 16.6107 329.983 17.24C329.588 17.8693 329.06 18.3387 328.399 18.648C327.738 18.9573 327.007 19.112 326.207 19.112C325.407 19.112 324.676 18.9573 324.015 18.648C323.364 18.3387 322.847 17.8693 322.463 17.24C322.079 16.6107 321.887 15.8427 321.887 14.936V7.88H323.711ZM340.226 19L337.666 14.552H336.274V19H334.45V7.88H338.29C339.143 7.88 339.863 8.02933 340.45 8.328C341.047 8.62667 341.49 9.02667 341.778 9.528C342.077 10.0293 342.226 10.5893 342.226 11.208C342.226 11.9333 342.013 12.5947 341.586 13.192C341.17 13.7787 340.525 14.1787 339.65 14.392L342.402 19H340.226ZM336.274 13.096H338.29C338.973 13.096 339.485 12.9253 339.826 12.584C340.178 12.2427 340.354 11.784 340.354 11.208C340.354 10.632 340.183 10.184 339.842 9.864C339.501 9.53333 338.983 9.368 338.29 9.368H336.274V13.096ZM345.451 13.416C345.451 12.328 345.702 11.352 346.203 10.488C346.715 9.624 347.403 8.952 348.267 8.472C349.142 7.98133 350.097 7.736 351.131 7.736C352.315 7.736 353.366 8.02933 354.283 8.616C355.211 9.192 355.883 10.0133 356.299 11.08H354.107C353.819 10.4933 353.419 10.056 352.907 9.768C352.395 9.48 351.803 9.336 351.131 9.336C350.395 9.336 349.739 9.50133 349.163 9.832C348.587 10.1627 348.134 10.6373 347.803 11.256C347.483 11.8747 347.323 12.5947 347.323 13.416C347.323 14.2373 347.483 14.9573 347.803 15.576C348.134 16.1947 348.587 16.6747 349.163 17.016C349.739 17.3467 350.395 17.512 351.131 17.512C351.803 17.512 352.395 17.368 352.907 17.08C353.419 16.792 353.819 16.3547 354.107 15.768H356.299C355.883 16.8347 355.211 17.656 354.283 18.232C353.366 18.808 352.315 19.096 351.131 19.096C350.086 19.096 349.131 18.856 348.267 18.376C347.403 17.8853 346.715 17.208 346.203 16.344C345.702 15.48 345.451 14.504 345.451 13.416ZM361.758 9.352V12.616H365.598V14.104H361.758V17.512H366.078V19H359.934V7.864H366.078V9.352H361.758ZM373.489 19.112C372.742 19.112 372.07 18.984 371.473 18.728C370.876 18.4613 370.406 18.088 370.065 17.608C369.724 17.128 369.553 16.568 369.553 15.928H371.505C371.548 16.408 371.734 16.8027 372.065 17.112C372.406 17.4213 372.881 17.576 373.489 17.576C374.118 17.576 374.609 17.4267 374.961 17.128C375.313 16.8187 375.489 16.424 375.489 15.944C375.489 15.5707 375.377 15.2667 375.153 15.032C374.94 14.7973 374.668 14.616 374.337 14.488C374.017 14.36 373.569 14.2213 372.993 14.072C372.268 13.88 371.676 13.688 371.217 13.496C370.769 13.2933 370.385 12.984 370.065 12.568C369.745 12.152 369.585 11.5973 369.585 10.904C369.585 10.264 369.745 9.704 370.065 9.224C370.385 8.744 370.833 8.376 371.409 8.12C371.985 7.864 372.652 7.736 373.409 7.736C374.486 7.736 375.366 8.008 376.049 8.552C376.742 9.08533 377.126 9.82133 377.201 10.76H375.185C375.153 10.3547 374.961 10.008 374.609 9.72C374.257 9.432 373.793 9.288 373.217 9.288C372.694 9.288 372.268 9.42133 371.937 9.688C371.606 9.95467 371.441 10.3387 371.441 10.84C371.441 11.1813 371.542 11.464 371.745 11.688C371.958 11.9013 372.225 12.072 372.545 12.2C372.865 12.328 373.302 12.4667 373.857 12.616C374.593 12.8187 375.19 13.0213 375.649 13.224C376.118 13.4267 376.513 13.7413 376.833 14.168C377.164 14.584 377.329 15.144 377.329 15.848C377.329 16.4133 377.174 16.9467 376.865 17.448C376.566 17.9493 376.124 18.3547 375.537 18.664C374.961 18.9627 374.278 19.112 373.489 19.112Z" fill="#BCBCBC"/>
<line x1="11.75" y1="34.25" x2="76.5131" y2="34.25" stroke="#9B51E0" stroke-width="1.5" stroke-linecap="round"/>
</g>
<defs>
<filter id="filter0_d_206_80" x="0.992" y="5.73608" width="380.337" height="37.2639" filterUnits="userSpaceOnUse" color-interpolation-filters="sRGB">
<feFlood flood-opacity="0" result="BackgroundImageFix"/>
<feColorMatrix in="SourceAlpha" type="matrix" values="0 0 0 0 0 0 0 0 0 0 0 0 0 0 0 0 0 0 127 0" result="hardAlpha"/>
<feOffset dy="4"/>
<feGaussianBlur stdDeviation="2"/>
<feComposite in2="hardAlpha" operator="out"/>
<feColorMatrix type="matrix" values="0 0 0 0 0 0 0 0 0 0 0 0 0 0 0 0 0 0 0.25 0"/>
<feBlend mode="normal" in2="BackgroundImageFix" result="effect1_dropShadow_206_80"/>
<feBlend mode="normal" in="SourceGraphic" in2="effect1_dropShadow_206_80" result="shape"/>
</filter>
<linearGradient id="paint0_linear_206_80" x1="6.19461" y1="6.77563" x2="110.882" y2="24.5359" gradientUnits="userSpaceOnUse">
<stop stop-color="#9B51E0"/>
<stop offset="1" stop-color="#3081ED"/>
</linearGradient>
</defs>
</svg>
