<svg width="26" height="25" viewBox="0 0 26 25" fill="none" xmlns="http://www.w3.org/2000/svg">
<path fill-rule="evenodd" clip-rule="evenodd" d="M7.0404 4.70657C4.86758 4.70657 2.61279 6.56262 2.61279 9.16158C2.61279 12.2287 5.04121 15.0446 7.69328 17.177C8.9953 18.2238 10.3012 19.0659 11.2835 19.6468C11.7738 19.9367 12.1815 20.1604 12.465 20.3108C12.4915 20.3249 12.517 20.3383 12.5414 20.3511C12.5657 20.3383 12.5912 20.3249 12.6178 20.3108C12.9012 20.1604 13.3089 19.9367 13.7992 19.6468C14.7815 19.0659 16.0874 18.2238 17.3894 17.177C20.0415 15.0446 22.4699 12.2287 22.4699 9.16158C22.4699 6.56262 20.2151 4.70657 18.0423 4.70657C15.842 4.70657 14.0701 6.07755 13.285 8.30193C13.1783 8.60421 12.8787 8.80811 12.5414 8.80811C12.204 8.80811 11.9044 8.60421 11.7978 8.30193C11.0127 6.07755 9.24074 4.70657 7.0404 4.70657ZM12.5414 21.1928L12.8994 21.8513C12.6747 21.9603 12.4081 21.9603 12.1833 21.8513L12.5414 21.1928ZM1.04512 9.16158C1.04512 5.74494 4.00178 3.22601 7.0404 3.22601C9.43718 3.22601 11.3716 4.43633 12.5414 6.29059C13.7111 4.43633 15.6455 3.22601 18.0423 3.22601C21.0809 3.22601 24.0376 5.74494 24.0376 9.16158C24.0376 12.9304 21.1098 16.1301 18.4057 18.3043C17.0296 19.4107 15.6574 20.2947 14.6311 20.9016C14.1172 21.2055 13.6879 21.4412 13.3856 21.6016C13.2343 21.6818 13.1147 21.7433 13.032 21.7852C12.9906 21.8061 12.9584 21.8222 12.9361 21.8332L12.9101 21.8461L12.9028 21.8496L12.9006 21.8507C12.9004 21.8508 12.8994 21.8513 12.5414 21.1928C12.1833 21.8513 12.1836 21.8514 12.1833 21.8513L12.1799 21.8496L12.1726 21.8461L12.1466 21.8332C12.1243 21.8222 12.0921 21.8061 12.0507 21.7852C11.968 21.7433 11.8484 21.6818 11.6972 21.6016C11.3948 21.4412 10.9655 21.2055 10.4516 20.9016C9.42529 20.2947 8.05312 19.4107 6.67704 18.3043C3.9729 16.1301 1.04512 12.9304 1.04512 9.16158Z" fill="#E0E0E0"/>
</svg>
