<svg width="24" height="23" viewBox="0 0 24 23" fill="none" xmlns="http://www.w3.org/2000/svg">
<path fill-rule="evenodd" clip-rule="evenodd" d="M6.73649 3.77773C4.65746 3.77773 2.5 5.55367 2.5 8.04043C2.5 10.9751 4.8236 13.6695 7.36118 15.7098C8.60701 16.7115 9.85656 17.5172 10.7965 18.073C11.2656 18.3504 11.6557 18.5645 11.9269 18.7084C11.9523 18.7219 11.9767 18.7347 12 18.747C12.0233 18.7347 12.0477 18.7219 12.0731 18.7084C12.3443 18.5645 12.7344 18.3504 13.2035 18.073C14.1434 17.5172 15.393 16.7115 16.6388 15.7098C19.1764 13.6695 21.5 10.9751 21.5 8.04043C21.5 5.55367 19.3425 3.77773 17.2635 3.77773C15.1581 3.77773 13.4627 5.08953 12.7115 7.21789C12.6094 7.50713 12.3228 7.70223 12 7.70223C11.6772 7.70223 11.3906 7.50713 11.2885 7.21789C10.5373 5.08953 8.84185 3.77773 6.73649 3.77773ZM12 19.5523L12.3426 20.1824C12.1276 20.2867 11.8725 20.2867 11.6574 20.1824L12 19.5523ZM1 8.04043C1 4.77128 3.82903 2.36108 6.73649 2.36108C9.02981 2.36108 10.8808 3.51916 12 5.29338C13.1192 3.51916 14.9702 2.36108 17.2635 2.36108C20.171 2.36108 23 4.77128 23 8.04043C23 11.6466 20.1986 14.7081 17.6112 16.7885C16.2945 17.8472 14.9816 18.693 13.9996 19.2737C13.5078 19.5645 13.0971 19.79 12.8078 19.9435C12.6631 20.0202 12.5486 20.0791 12.4694 20.1192C12.4299 20.1392 12.3991 20.1546 12.3777 20.1651L12.3529 20.1774L12.3459 20.1808L12.3438 20.1818C12.3435 20.1819 12.3426 20.1824 12 19.5523C11.6574 20.1824 11.6576 20.1825 11.6574 20.1824L11.6541 20.1808L11.6471 20.1774L11.6223 20.1651C11.6009 20.1546 11.5701 20.1392 11.5306 20.1192C11.4514 20.0791 11.3369 20.0202 11.1922 19.9435C10.9029 19.79 10.4922 19.5645 10.0004 19.2737C9.01844 18.693 7.70549 17.8472 6.38882 16.7885C3.80141 14.7081 1 11.6466 1 8.04043Z" fill="#E0E0E0"/>
</svg>
