<svg width="24" height="22" viewBox="0 0 24 22" fill="none" xmlns="http://www.w3.org/2000/svg">
<path fill-rule="evenodd" clip-rule="evenodd" d="M6.73649 3.65172C4.65746 3.65172 2.5 5.3684 2.5 7.77219C2.5 10.609 4.8236 13.2134 7.36118 15.1857C8.60701 16.1539 9.85656 16.9328 10.7965 17.47C11.2656 17.7382 11.6557 17.945 11.9269 18.0842C11.9523 18.0972 11.9767 18.1096 12 18.1215C12.0233 18.1096 12.0477 18.0972 12.0731 18.0842C12.3443 17.945 12.7344 17.7382 13.2035 17.47C14.1434 16.9328 15.393 16.1539 16.6388 15.1857C19.1764 13.2134 21.5 10.609 21.5 7.77219C21.5 5.3684 19.3425 3.65172 17.2635 3.65172C15.1581 3.65172 13.4627 4.91976 12.7115 6.9771C12.6094 7.25668 12.3228 7.44527 12 7.44527C11.6772 7.44527 11.3906 7.25668 11.2885 6.9771C10.5373 4.91976 8.84185 3.65172 6.73649 3.65172ZM12 18.8999L12.3426 19.509C12.1276 19.6098 11.8725 19.6098 11.6574 19.509L12 18.8999ZM1 7.77219C1 4.61212 3.82903 2.28235 6.73649 2.28235C9.02981 2.28235 10.8808 3.40178 12 5.1168C13.1192 3.40178 14.9702 2.28235 17.2635 2.28235C20.171 2.28235 23 4.61212 23 7.77219C23 11.258 20.1986 14.2174 17.6112 16.2284C16.2945 17.2517 14.9816 18.0693 13.9996 18.6306C13.5078 18.9117 13.0971 19.1297 12.8078 19.278C12.6631 19.3522 12.5486 19.4091 12.4694 19.4479C12.4299 19.4672 12.3991 19.4821 12.3777 19.4923L12.3529 19.5042L12.3459 19.5075L12.3438 19.5084C12.3435 19.5086 12.3426 19.509 12 18.8999C11.6574 19.509 11.6576 19.5091 11.6574 19.509L11.6541 19.5075L11.6471 19.5042L11.6223 19.4923C11.6009 19.4821 11.5701 19.4672 11.5306 19.4479C11.4514 19.4091 11.3369 19.3522 11.1922 19.278C10.9029 19.1297 10.4922 18.9117 10.0004 18.6306C9.01844 18.0693 7.70549 17.2517 6.38882 16.2284C3.80141 14.2174 1 11.258 1 7.77219Z" fill="#E0E0E0"/>
</svg>
