<svg width="22" height="21" viewBox="0 0 22 21" fill="none" xmlns="http://www.w3.org/2000/svg">
<path fill-rule="evenodd" clip-rule="evenodd" d="M6.09264 3.41669C4.21231 3.41669 2.26106 5.02289 2.26106 7.27198C2.26106 9.92619 4.36257 12.363 6.65763 14.2084C7.78438 15.1143 8.91451 15.843 9.76457 16.3457C10.1889 16.5966 10.5417 16.7902 10.787 16.9203C10.81 16.9325 10.832 16.9442 10.8531 16.9552C10.8742 16.9442 10.8962 16.9325 10.9192 16.9203C11.1645 16.7902 11.5173 16.5966 11.9416 16.3457C12.7917 15.843 13.9218 15.1143 15.0485 14.2084C17.3436 12.363 19.4451 9.92619 19.4451 7.27198C19.4451 5.02289 17.4939 3.41669 15.6135 3.41669C13.7094 3.41669 12.176 4.60311 11.4966 6.52806C11.4043 6.78965 11.1451 6.9661 10.8531 6.9661C10.5611 6.9661 10.3019 6.78965 10.2096 6.52806C9.53018 4.60311 7.99678 3.41669 6.09264 3.41669ZM10.8531 17.6836L11.1629 18.2535C10.9684 18.3478 10.7377 18.3478 10.5432 18.2535L10.8531 17.6836ZM0.904419 7.27198C0.904419 4.31527 3.46306 2.13544 6.09264 2.13544C8.16678 2.13544 9.84084 3.18283 10.8531 4.78747C11.8653 3.18283 13.5394 2.13544 15.6135 2.13544C18.2431 2.13544 20.8018 4.31527 20.8018 7.27198C20.8018 10.5335 18.2681 13.3024 15.928 15.184C14.7371 16.1414 13.5497 16.9065 12.6616 17.4316C12.2168 17.6946 11.8453 17.8986 11.5837 18.0374C11.4528 18.1068 11.3493 18.16 11.2777 18.1963C11.2419 18.2144 11.214 18.2283 11.1947 18.2379L11.1722 18.2489L11.1659 18.252L11.164 18.2529C11.1638 18.2531 11.1629 18.2535 10.8531 17.6836C10.5432 18.2535 10.5435 18.2536 10.5432 18.2535L10.5403 18.252L10.534 18.2489L10.5115 18.2379C10.4922 18.2283 10.4643 18.2144 10.4285 18.1963C10.3569 18.16 10.2534 18.1068 10.1225 18.0374C9.86088 17.8986 9.4894 17.6946 9.04462 17.4316C8.15649 16.9065 6.96903 16.1414 5.7782 15.184C3.43808 13.3024 0.904419 10.5335 0.904419 7.27198Z" fill="#E0E0E0"/>
</svg>
