<svg width="99" height="21" viewBox="0 0 99 21" fill="none" xmlns="http://www.w3.org/2000/svg">
<path d="M7.848 20.196C6.41067 20.196 5.12267 19.9627 3.984 19.496C2.84533 19.0293 1.93067 18.3387 1.24 17.424C0.568 16.5093 0.213333 15.408 0.176 14.12H5.272C5.34667 14.848 5.59867 15.408 6.028 15.8C6.45733 16.1733 7.01733 16.36 7.708 16.36C8.41733 16.36 8.97733 16.2013 9.388 15.884C9.79867 15.548 10.004 15.0907 10.004 14.512C10.004 14.0267 9.836 13.6253 9.5 13.308C9.18267 12.9907 8.78133 12.7293 8.296 12.524C7.82933 12.3187 7.15733 12.0853 6.28 11.824C5.01067 11.432 3.97467 11.04 3.172 10.648C2.36933 10.256 1.67867 9.67733 1.1 8.912C0.521333 8.14667 0.232 7.148 0.232 5.916C0.232 4.08667 0.894667 2.65867 2.22 1.632C3.54533 0.586666 5.272 0.0639997 7.4 0.0639997C9.56533 0.0639997 11.3107 0.586666 12.636 1.632C13.9613 2.65867 14.6707 4.096 14.764 5.944H9.584C9.54667 5.30933 9.31333 4.81467 8.884 4.46C8.45467 4.08667 7.904 3.9 7.232 3.9C6.65333 3.9 6.18667 4.05867 5.832 4.376C5.47733 4.67467 5.3 5.11333 5.3 5.692C5.3 6.32667 5.59867 6.82133 6.196 7.176C6.79333 7.53067 7.72667 7.91333 8.996 8.324C10.2653 8.75333 11.292 9.164 12.076 9.556C12.8787 9.948 13.5693 10.5173 14.148 11.264C14.7267 12.0107 15.016 12.972 15.016 14.148C15.016 15.268 14.7267 16.2853 14.148 17.2C13.588 18.1147 12.7667 18.8427 11.684 19.384C10.6013 19.9253 9.32267 20.196 7.848 20.196ZM34.4426 6.672C34.4426 7.81067 34.1812 8.856 33.6586 9.808C33.1359 10.7413 32.3332 11.4973 31.2506 12.076C30.1679 12.6547 28.8239 12.944 27.2186 12.944H24.2506V20H19.4626V0.343999H27.2186C28.7866 0.343999 30.1119 0.614666 31.1946 1.156C32.2772 1.69733 33.0892 2.444 33.6306 3.396C34.1719 4.348 34.4426 5.44 34.4426 6.672ZM26.8546 9.136C27.7692 9.136 28.4506 8.92133 28.8986 8.492C29.3466 8.06267 29.5706 7.456 29.5706 6.672C29.5706 5.888 29.3466 5.28133 28.8986 4.852C28.4506 4.42267 27.7692 4.208 26.8546 4.208H24.2506V9.136H26.8546ZM43.1392 0.343999V12.104C43.1392 13.28 43.4286 14.1853 44.0072 14.82C44.5859 15.4547 45.4352 15.772 46.5552 15.772C47.6752 15.772 48.5339 15.4547 49.1312 14.82C49.7286 14.1853 50.0272 13.28 50.0272 12.104V0.343999H54.8152V12.076C54.8152 13.8307 54.4419 15.3147 53.6952 16.528C52.9486 17.7413 51.9406 18.656 50.6712 19.272C49.4206 19.888 48.0206 20.196 46.4712 20.196C44.9219 20.196 43.5312 19.8973 42.2992 19.3C41.0859 18.684 40.1246 17.7693 39.4152 16.556C38.7059 15.324 38.3512 13.8307 38.3512 12.076V0.343999H43.1392ZM81.9374 0.343999V20H77.1494V8.212L72.7534 20H68.8894L64.4654 8.184V20H59.6774V0.343999H65.3334L70.8494 13.952L76.3094 0.343999H81.9374ZM91.6685 4.18V8.156H98.0805V11.852H91.6685V16.164H98.9205V20H86.8805V0.343999H98.9205V4.18H91.6685Z" fill="url(#paint0_linear_206_181)"/>
<defs>
<linearGradient id="paint0_linear_206_181" x1="1.125" y1="2.33928" x2="97.6195" y2="29.7554" gradientUnits="userSpaceOnUse">
<stop stop-color="#9B51E0"/>
<stop offset="1" stop-color="#3081ED"/>
</linearGradient>
</defs>
</svg>
