<svg width="24" height="19" viewBox="0 0 24 19" fill="none" xmlns="http://www.w3.org/2000/svg">
<path fill-rule="evenodd" clip-rule="evenodd" d="M6.0404 1.70657C3.86758 1.70657 1.61279 3.56262 1.61279 6.16158C1.61279 9.22866 4.04121 12.0446 6.69328 14.177C7.9953 15.2238 9.30123 16.0659 10.2835 16.6468C10.7738 16.9367 11.1815 17.1604 11.465 17.3108C11.4915 17.3249 11.517 17.3383 11.5414 17.3511C11.5657 17.3383 11.5912 17.3249 11.6178 17.3108C11.9012 17.1604 12.3089 16.9367 12.7992 16.6468C13.7815 16.0659 15.0874 15.2238 16.3894 14.177C19.0415 12.0446 21.4699 9.22866 21.4699 6.16158C21.4699 3.56262 19.2151 1.70657 17.0423 1.70657C14.842 1.70657 13.0701 3.07755 12.285 5.30193C12.1783 5.60421 11.8787 5.80811 11.5414 5.80811C11.204 5.80811 10.9044 5.60421 10.7978 5.30193C10.0127 3.07755 8.24074 1.70657 6.0404 1.70657ZM11.5414 18.1928L11.8994 18.8513C11.6747 18.9603 11.4081 18.9603 11.1833 18.8513L11.5414 18.1928ZM0.0451202 6.16158C0.0451202 2.74494 3.00178 0.226013 6.0404 0.226013C8.43718 0.226013 10.3716 1.43633 11.5414 3.29059C12.7111 1.43633 14.6455 0.226013 17.0423 0.226013C20.0809 0.226013 23.0376 2.74494 23.0376 6.16158C23.0376 9.93039 20.1098 13.1301 17.4057 15.3043C16.0296 16.4107 14.6574 17.2947 13.6311 17.9016C13.1172 18.2055 12.6879 18.4412 12.3856 18.6016C12.2343 18.6818 12.1147 18.7433 12.032 18.7852C11.9906 18.8061 11.9584 18.8222 11.9361 18.8332L11.9101 18.8461L11.9028 18.8496L11.9006 18.8507C11.9004 18.8508 11.8994 18.8513 11.5414 18.1928C11.1833 18.8513 11.1836 18.8514 11.1833 18.8513L11.1799 18.8496L11.1726 18.8461L11.1466 18.8332C11.1243 18.8222 11.0921 18.8061 11.0507 18.7852C10.968 18.7433 10.8484 18.6818 10.6972 18.6016C10.3948 18.4412 9.96554 18.2055 9.45158 17.9016C8.42529 17.2947 7.05312 16.4107 5.67704 15.3043C2.9729 13.1301 0.0451202 9.93039 0.0451202 6.16158Z" fill="#E0E0E0"/>
</svg>
