<svg width="21" height="17" viewBox="0 0 21 17" fill="none" xmlns="http://www.w3.org/2000/svg">
<path fill-rule="evenodd" clip-rule="evenodd" d="M6.09264 1.41669C4.21231 1.41669 2.26106 3.02289 2.26106 5.27198C2.26106 7.92619 4.36257 10.363 6.65763 12.2084C7.78438 13.1143 8.91451 13.843 9.76457 14.3457C10.1889 14.5966 10.5417 14.7902 10.787 14.9203C10.81 14.9325 10.832 14.9442 10.8531 14.9552C10.8742 14.9442 10.8962 14.9325 10.9192 14.9203C11.1645 14.7902 11.5173 14.5966 11.9416 14.3457C12.7917 13.843 13.9218 13.1143 15.0485 12.2084C17.3436 10.363 19.4451 7.92619 19.4451 5.27198C19.4451 3.02289 17.4939 1.41669 15.6135 1.41669C13.7094 1.41669 12.176 2.60311 11.4966 4.52806C11.4043 4.78965 11.1451 4.9661 10.8531 4.9661C10.5611 4.9661 10.3019 4.78965 10.2096 4.52806C9.53018 2.60311 7.99678 1.41669 6.09264 1.41669ZM10.8531 15.6836L11.1629 16.2535C10.9684 16.3478 10.7377 16.3478 10.5432 16.2535L10.8531 15.6836ZM0.904419 5.27198C0.904419 2.31527 3.46306 0.135437 6.09264 0.135437C8.16678 0.135437 9.84084 1.18283 10.8531 2.78747C11.8653 1.18283 13.5394 0.135437 15.6135 0.135437C18.2431 0.135437 20.8018 2.31527 20.8018 5.27198C20.8018 8.53345 18.2681 11.3024 15.928 13.184C14.7371 14.1414 13.5497 14.9065 12.6616 15.4316C12.2168 15.6946 11.8453 15.8986 11.5837 16.0374C11.4528 16.1068 11.3493 16.16 11.2777 16.1963C11.2419 16.2144 11.214 16.2283 11.1947 16.2379L11.1722 16.2489L11.1659 16.252L11.164 16.2529C11.1638 16.2531 11.1629 16.2535 10.8531 15.6836C10.5432 16.2535 10.5435 16.2536 10.5432 16.2535L10.5403 16.252L10.534 16.2489L10.5115 16.2379C10.4922 16.2283 10.4643 16.2144 10.4285 16.1963C10.3569 16.16 10.2534 16.1068 10.1225 16.0374C9.86088 15.8986 9.4894 15.6946 9.04462 15.4316C8.15649 14.9065 6.96903 14.1414 5.7782 13.184C3.43808 11.3024 0.904419 8.53345 0.904419 5.27198Z" fill="#E0E0E0"/>
</svg>
