<svg width="64" height="54" viewBox="0 0 64 54" fill="none" xmlns="http://www.w3.org/2000/svg">
<path fill-rule="evenodd" clip-rule="evenodd" d="M5.79166 0.351776C3.05325 0.351776 0.833328 2.44834 0.833328 5.03458V14.4002C0.833328 16.9864 3.05325 19.083 5.79166 19.083H58.2083C60.9467 19.083 63.1667 16.9864 63.1667 14.4002V5.03458C63.1667 2.44834 60.9467 0.351776 58.2083 0.351776H5.79166ZM58.2083 4.36561H5.79166C5.40046 4.36561 5.08333 4.66512 5.08333 5.03458V14.4002C5.08333 14.7697 5.40046 15.0692 5.79166 15.0692H58.2083C58.5995 15.0692 58.9167 14.7697 58.9167 14.4002V5.03458C58.9167 4.66512 58.5995 4.36561 58.2083 4.36561Z" fill="white"/>
<path d="M5.79166 21.7589C6.96527 21.7589 7.91666 22.6574 7.91666 23.7658V49.1867C7.91666 49.5562 8.23379 49.8557 8.62499 49.8557H55.375C55.7662 49.8557 56.0833 49.5562 56.0833 49.1867V23.7658C56.0833 22.6574 57.0347 21.7589 58.2083 21.7589C59.3819 21.7589 60.3333 22.6574 60.3333 23.7658V49.1867C60.3333 51.773 58.1134 53.8695 55.375 53.8695H8.62499C5.88658 53.8695 3.66666 51.773 3.66666 49.1867V23.7658C3.66666 22.6574 4.61806 21.7589 5.79166 21.7589Z" fill="white"/>
<path d="M25.625 25.7727C24.4514 25.7727 23.5 26.6712 23.5 27.7796C23.5 28.888 24.4514 29.7866 25.625 29.7866H38.375C39.5486 29.7866 40.5 28.888 40.5 27.7796C40.5 26.6712 39.5486 25.7727 38.375 25.7727H25.625Z" fill="white"/>
</svg>
