<svg width="24" height="19" viewBox="0 0 24 19" fill="none" xmlns="http://www.w3.org/2000/svg">
<path fill-rule="evenodd" clip-rule="evenodd" d="M6.04039 1.70663C3.86757 1.70663 1.61278 3.56268 1.61278 6.16164C1.61278 9.22872 4.0412 12.0446 6.69327 14.177C7.99529 15.2239 9.30122 16.066 10.2835 16.6468C10.7738 16.9368 11.1815 17.1604 11.465 17.3108C11.4915 17.3249 11.517 17.3384 11.5414 17.3512C11.5657 17.3384 11.5912 17.3249 11.6177 17.3108C11.9012 17.1604 12.3089 16.9368 12.7992 16.6468C13.7815 16.066 15.0874 15.2239 16.3894 14.177C19.0415 12.0446 21.4699 9.22872 21.4699 6.16164C21.4699 3.56268 19.2151 1.70663 17.0423 1.70663C14.842 1.70663 13.07 3.07761 12.285 5.30199C12.1783 5.60428 11.8787 5.80817 11.5414 5.80817C11.204 5.80817 10.9044 5.60428 10.7977 5.30199C10.0127 3.07761 8.24073 1.70663 6.04039 1.70663ZM11.5414 18.1928L11.8994 18.8513C11.6747 18.9604 11.408 18.9604 11.1833 18.8513L11.5414 18.1928ZM0.0451126 6.16164C0.0451126 2.745 3.00177 0.226074 6.04039 0.226074C8.43717 0.226074 10.3716 1.43639 11.5414 3.29065C12.7111 1.43639 14.6455 0.226074 17.0423 0.226074C20.0809 0.226074 23.0376 2.745 23.0376 6.16164C23.0376 9.93045 20.1098 13.1301 17.4057 15.3044C16.0296 16.4108 14.6574 17.2948 13.6311 17.9017C13.1172 18.2056 12.6879 18.4412 12.3856 18.6016C12.2343 18.6819 12.1147 18.7434 12.032 18.7853C11.9906 18.8062 11.9584 18.8223 11.9361 18.8333L11.9101 18.8461L11.9028 18.8497L11.9006 18.8508C11.9004 18.8509 11.8994 18.8513 11.5414 18.1928C11.1833 18.8513 11.1836 18.8515 11.1833 18.8513L11.1799 18.8497L11.1726 18.8461L11.1466 18.8333C11.1243 18.8223 11.0921 18.8062 11.0507 18.7853C10.968 18.7434 10.8484 18.6819 10.6971 18.6016C10.3948 18.4412 9.96553 18.2056 9.45157 17.9017C8.42528 17.2948 7.05311 16.4108 5.67703 15.3044C2.9729 13.1301 0.0451126 9.93045 0.0451126 6.16164Z" fill="#E0E0E0"/>
</svg>
