<svg width="22" height="19" viewBox="0 0 22 19" fill="none" xmlns="http://www.w3.org/2000/svg">
<path fill-rule="evenodd" clip-rule="evenodd" d="M5.73649 1.77773C3.65746 1.77773 1.5 3.55367 1.5 6.04043C1.5 8.97513 3.8236 11.6695 6.36118 13.7098C7.60701 14.7115 8.85656 15.5172 9.79645 16.073C10.2656 16.3504 10.6557 16.5645 10.9269 16.7084C10.9523 16.7219 10.9767 16.7347 11 16.747C11.0233 16.7347 11.0477 16.7219 11.0731 16.7084C11.3443 16.5645 11.7344 16.3504 12.2035 16.073C13.1434 15.5172 14.393 14.7115 15.6388 13.7098C18.1764 11.6695 20.5 8.97513 20.5 6.04043C20.5 3.55367 18.3425 1.77773 16.2635 1.77773C14.1581 1.77773 12.4627 3.08953 11.7115 5.21789C11.6094 5.50713 11.3228 5.70223 11 5.70223C10.6772 5.70223 10.3906 5.50713 10.2885 5.21789C9.53729 3.08953 7.84185 1.77773 5.73649 1.77773ZM11 17.5523L11.3426 18.1824C11.1276 18.2867 10.8725 18.2867 10.6574 18.1824L11 17.5523ZM0 6.04043C0 2.77128 2.82903 0.361084 5.73649 0.361084C8.02981 0.361084 9.88078 1.51916 11 3.29338C12.1192 1.51916 13.9702 0.361084 16.2635 0.361084C19.171 0.361084 22 2.77128 22 6.04043C22 9.64657 19.1986 12.7081 16.6112 14.7885C15.2945 15.8472 13.9816 16.693 12.9996 17.2737C12.5078 17.5645 12.0971 17.79 11.8078 17.9435C11.6631 18.0202 11.5486 18.0791 11.4694 18.1192C11.4299 18.1392 11.3991 18.1546 11.3777 18.1651L11.3529 18.1774L11.3459 18.1808L11.3438 18.1818C11.3435 18.1819 11.3426 18.1824 11 17.5523C10.6574 18.1824 10.6576 18.1825 10.6574 18.1824L10.6541 18.1808L10.6471 18.1774L10.6223 18.1651C10.6009 18.1546 10.5701 18.1392 10.5306 18.1192C10.4514 18.0791 10.3369 18.0202 10.1922 17.9435C9.90294 17.79 9.4922 17.5645 9.00042 17.2737C8.01844 16.693 6.70549 15.8472 5.38882 14.7885C2.80141 12.7081 0 9.64657 0 6.04043Z" fill="#E0E0E0"/>
</svg>
